<?xml version="1.0" encoding="UTF-8" standalone="no"?>
<svg
   xmlns:dc="http://purl.org/dc/elements/1.1/"
   xmlns:cc="http://creativecommons.org/ns#"
   xmlns:rdf="http://www.w3.org/1999/02/22-rdf-syntax-ns#"
   xmlns:svg="http://www.w3.org/2000/svg"
   xmlns="http://www.w3.org/2000/svg"
   xmlns:sodipodi="http://sodipodi.sourceforge.net/DTD/sodipodi-0.dtd"
   xmlns:inkscape="http://www.inkscape.org/namespaces/inkscape"
   version="1.1"
   id="svg4228"
   viewBox="0 0 744.71992 187.60677"
   height="187.60677"
   width="744.71991"
   inkscape:version="0.48.4 r9939"
   sodipodi:docname="NewIcon+Name(PlainSVG).svg">
  <sodipodi:namedview
     pagecolor="#ffffff"
     bordercolor="#666666"
     borderopacity="1"
     objecttolerance="10"
     gridtolerance="10"
     guidetolerance="10"
     inkscape:pageopacity="0"
     inkscape:pageshadow="2"
     inkscape:window-width="1329"
     inkscape:window-height="836"
     id="namedview23"
     showgrid="false"
     fit-margin-top="0"
     fit-margin-left="0"
     fit-margin-right="0"
     fit-margin-bottom="0"
     inkscape:zoom="0.63429569"
     inkscape:cx="453.58516"
     inkscape:cy="-73.669217"
     inkscape:window-x="0"
     inkscape:window-y="0"
     inkscape:window-maximized="0"
     inkscape:current-layer="svg4228" />
  <defs
     id="defs4230" />
  <metadata
     id="metadata4233">
    <rdf:RDF>
      <cc:Work
         rdf:about="">
        <dc:format>image/svg+xml</dc:format>
        <dc:type
           rdf:resource="http://purl.org/dc/dcmitype/StillImage" />
        <dc:title />
      </cc:Work>
    </rdf:RDF>
  </metadata>
  <g
     id="layer1"
     transform="translate(901.91376,-405.41606)">
    <g
       id="g4812">
      <g
         id="g4175"
         transform="matrix(11.405953,0,0,11.405953,-2731.9809,-6233.9415)">
        <path
           style="fill:#ffffff;fill-opacity:1;stroke:none"
           d="m 167.67391,582.09582 0.0317,2.34657 c -0.67455,-0.0171 -1.34808,0.0621 -2.00025,0.23521 -3.10079,0.83087 -5.25695,3.64082 -5.25694,6.851 -1e-5,3.21018 2.15615,6.02013 5.25694,6.85099 3.99524,0.64863 6.47052,-0.62243 8.1265,-3.81217 l -3.42676,-1.96847 c 0.0842,-0.17268 0.25763,-0.66918 0.25274,-1.16784 l 0.0152,-1.04375 3.19778,-1.93887 c -0.79101,-2.92877 -2.32548,-5.1462 -6.19692,-6.35267 z"
           id="path4177"
           inkscape:connector-curvature="0" />
        <path
           style="fill:#346ea9;fill-opacity:1;fill-rule:evenodd;stroke:none"
           d="m 168.21462,588.56893 c -0.0158,0.39633 -0.43464,0.51986 -0.66321,0.52191 -1.22391,0.0109 -2.51192,1.08103 -2.49946,2.59672 0.0106,1.28977 1.20006,2.39802 2.44491,2.36259 1.24142,-0.0353 2.53686,-1.17416 2.51217,-2.75143 -0.0213,-1.35931 -0.006,-4.32201 -9.5e-4,-5.31337 7.5e-4,-0.15896 0.13134,-0.23188 0.2113,-0.2012 1.39723,0.53614 2.10711,1.18507 2.94657,2.34618 -0.50567,-2.17076 -2.43974,-4.49879 -4.92863,-5.13124 z"
           id="path4179"
           inkscape:connector-curvature="0" />
        <path
           style="font-size:medium;font-style:normal;font-variant:normal;font-weight:normal;font-stretch:normal;text-indent:0;text-align:start;text-decoration:none;line-height:normal;letter-spacing:normal;word-spacing:normal;text-transform:none;direction:ltr;block-progression:tb;writing-mode:lr-tb;text-anchor:start;baseline-shift:baseline;color:#000000;fill:#1489f4;fill-opacity:1;fill-rule:evenodd;stroke:none;visibility:visible;display:inline;overflow:visible;enable-background:new;font-family:sans-serif"
           d="m 167.43197,585.23437 c -0.5243,0.006 -1.05241,0.055 -1.5759,0.19515 -2.77386,0.74326 -4.71661,3.27351 -4.71661,6.14522 0,2.87172 1.94275,5.40197 4.71661,6.14522 2.77387,0.74325 5.72007,-0.477 7.15593,-2.96399 l -2.85721,-1.64953 c -0.69724,1.20766 -2.09752,1.78769 -3.4445,1.42677 -1.34696,-0.36093 -2.27177,-1.56398 -2.27177,-2.95847 0,-1.39448 0.92481,-2.59754 2.27177,-2.95847 0.24054,-0.0645 0.48205,-0.0895 0.72168,-0.0957 z m 3.27512,1.48683 0,3.00335 1.95144,-1.1543 c -0.58738,-0.89798 -1.01786,-1.30487 -1.95144,-1.84905 z"
           id="path4181"
           inkscape:connector-curvature="0" />
        <path
           id="path4183"
           d="m 168.21462,588.56893 c -0.0158,0.39633 -0.43464,0.51986 -0.66321,0.52191 -1.22391,0.0109 -2.51192,1.08103 -2.49946,2.59672 0.0106,1.28977 1.20006,2.39802 2.44491,2.36259 1.24142,-0.0353 2.53686,-1.17416 2.51217,-2.75143 -0.0213,-1.35931 -0.006,-4.32201 -9.5e-4,-5.31337 7.5e-4,-0.15896 0.13134,-0.23188 0.2113,-0.2012 1.39723,0.53614 2.10711,1.18507 2.94657,2.34618 -0.50567,-2.17076 -2.43974,-4.49879 -4.92863,-5.13124 z"
           style="fill:#2e5f90;fill-opacity:1;fill-rule:evenodd;stroke:none"
           inkscape:connector-curvature="0" />
        <path
           id="path4185"
           d="m 167.43197,585.23437 c -0.5243,0.006 -1.05241,0.055 -1.5759,0.19515 -2.77386,0.74326 -4.71661,3.27351 -4.71661,6.14522 0,2.87172 1.94275,5.40197 4.71661,6.14522 2.77387,0.74325 5.72007,-0.477 7.15593,-2.96399 l -2.85721,-1.64953 c -0.69724,1.20766 -2.09752,1.78769 -3.4445,1.42677 -1.34696,-0.36093 -2.27177,-1.56398 -2.27177,-2.95847 0,-1.39448 0.92481,-2.59754 2.27177,-2.95847 0.24054,-0.0645 0.48205,-0.0895 0.72168,-0.0957 z m 3.27512,1.48683 0,3.00335 1.95144,-1.1543 c -0.58738,-0.89798 -1.01786,-1.30487 -1.95144,-1.84905 z"
           style="font-size:medium;font-style:normal;font-variant:normal;font-weight:normal;font-stretch:normal;text-indent:0;text-align:start;text-decoration:none;line-height:normal;letter-spacing:normal;word-spacing:normal;text-transform:none;direction:ltr;block-progression:tb;writing-mode:lr-tb;text-anchor:start;baseline-shift:baseline;color:#000000;fill:#1489f4;fill-opacity:1;fill-rule:evenodd;stroke:none;visibility:visible;display:inline;overflow:visible;enable-background:new;font-family:sans-serif"
           inkscape:connector-curvature="0" />
      </g>
      <g
         transform="matrix(14.574098,0,0,13.138772,-2860.588,-8044.9219)"
         style="font-size:4.95853806px;font-style:normal;font-weight:normal;line-height:125%;letter-spacing:-0.00076477px;word-spacing:0px;fill:#2e5f90;fill-opacity:1;stroke:none;font-family:Sans"
         id="text4191">
        <path
           d="m 147.79106,651.13429 c 0,-1.99705 0.51321,-2.96768 2.13093,-2.96768 0.76982,0 1.33881,0.23429 1.86317,0.53552 l 0.10041,-0.64709 c -0.49089,-0.27892 -0.99294,-0.52437 -1.91895,-0.52437 -2.08631,0 -2.85612,1.2384 -2.85612,3.63709 0,2.44332 0.81444,3.55899 2.88959,3.55899 0.99295,0 1.53963,-0.2566 1.97474,-0.53552 l -0.11157,-0.63593 c -0.32354,0.24545 -1.02642,0.53552 -1.9078,0.53552 -1.69582,0 -2.1644,-1.03757 -2.1644,-2.95653 z"
           style="font-size:11.15671062px;font-style:normal;font-variant:normal;font-weight:normal;font-stretch:normal;letter-spacing:-0.4256992px;fill:#2e5f90;fill-opacity:1;font-family:AccordAlternate;-inkscape-font-specification:AccordAlternate"
           id="path4186"
           inkscape:connector-curvature="0" />
        <path
           d="m 156.46244,650.91116 c 0,-1.26071 -0.89254,-1.69582 -2.07515,-1.69582 -0.62478,0 -1.14914,0.12272 -1.5731,0.22313 l 0.11157,0.61362 c 0.3347,-0.12272 0.83675,-0.23429 1.45037,-0.23429 0.89254,0 1.43922,0.2566 1.43922,1.05989 l 0,0.58015 -1.0822,0 c -1.495,0 -2.35407,0.44627 -2.35407,1.62888 0,1.21608 0.89254,1.61772 2.11978,1.61772 0.73634,0 1.495,-0.14504 1.96358,-0.30123 l 0,-3.49205 z m -0.64709,3.04578 c -0.36817,0.13388 -0.92601,0.17851 -1.33881,0.17851 -0.88138,0 -1.45037,-0.23429 -1.45037,-1.04873 0,-0.83676 0.61362,-1.10452 1.72929,-1.10452 l 1.05989,0 0,1.97474 z"
           style="font-size:11.15671062px;font-style:normal;font-variant:normal;font-weight:normal;font-stretch:normal;letter-spacing:-0.4256992px;fill:#2e5f90;fill-opacity:1;font-family:AccordAlternate;-inkscape-font-specification:AccordAlternate"
           id="path4188"
           inkscape:connector-curvature="0" />
        <path
           d="m 157.53906,654.62634 0.64709,0 0,-4.54078 c 0.39049,-0.15619 0.87022,-0.2566 1.53963,-0.2566 0.89253,0 1.50615,0.21197 1.50615,1.51731 l 0,3.28007 0.64709,0 0,-3.29123 c 0,-1.69582 -0.88138,-2.11977 -2.15324,-2.11977 -0.94832,0 -1.74045,0.20082 -2.18672,0.39048 l 0,5.02052 z"
           style="font-size:11.15671062px;font-style:normal;font-variant:normal;font-weight:normal;font-stretch:normal;letter-spacing:-0.4256992px;fill:#2e5f90;fill-opacity:1;font-family:AccordAlternate;-inkscape-font-specification:AccordAlternate"
           id="path4190"
           inkscape:connector-curvature="0" />
        <path
           d="m 162.84164,652.77433 c 0,1.42806 0.7475,1.93011 1.78507,1.93011 0.49089,0 0.99295,-0.11157 1.32765,-0.26776 l -0.10041,-0.60246 c -0.31239,0.15619 -0.79213,0.2566 -1.2384,0.2566 -0.6694,0 -1.12683,-0.29007 -1.12683,-1.31649 l 0,-2.85612 2.23135,0 0,-0.61362 -2.23135,0 0,-1.45037 -0.64708,0 0,4.92011 z"
           style="font-size:11.15671062px;font-style:normal;font-variant:normal;font-weight:normal;font-stretch:normal;letter-spacing:-0.4256992px;fill:#2e5f90;fill-opacity:1;font-family:AccordAlternate;-inkscape-font-specification:AccordAlternate"
           id="path4192"
           inkscape:connector-curvature="0" />
        <path
           d="m 170.5694,650.91116 c 0,-1.26071 -0.89254,-1.69582 -2.07515,-1.69582 -0.62477,0 -1.14914,0.12272 -1.5731,0.22313 l 0.11157,0.61362 c 0.3347,-0.12272 0.83676,-0.23429 1.45037,-0.23429 0.89254,0 1.43922,0.2566 1.43922,1.05989 l 0,0.58015 -1.0822,0 c -1.495,0 -2.35407,0.44627 -2.35407,1.62888 0,1.21608 0.89254,1.61772 2.11978,1.61772 0.73634,0 1.495,-0.14504 1.96358,-0.30123 l 0,-3.49205 z m -0.64709,3.04578 c -0.36817,0.13388 -0.92601,0.17851 -1.33881,0.17851 -0.88138,0 -1.45037,-0.23429 -1.45037,-1.04873 0,-0.83676 0.61362,-1.10452 1.72929,-1.10452 l 1.05989,0 0,1.97474 z"
           style="font-size:11.15671062px;font-style:normal;font-variant:normal;font-weight:normal;font-stretch:normal;letter-spacing:-0.4256992px;fill:#2e5f90;fill-opacity:1;font-family:AccordAlternate;-inkscape-font-specification:AccordAlternate"
           id="path4194"
           inkscape:connector-curvature="0" />
        <path
           d="m 171.64602,654.40321 c 0.60246,0.22313 1.32765,0.30123 1.84086,0.30123 1.76276,0 2.4991,-1.0041 2.4991,-2.74455 0,-1.66235 -0.6694,-2.74455 -2.45447,-2.74455 -0.50206,0 -0.93717,0.0892 -1.2384,0.22313 l 0,-2.36522 -0.64709,0 0,7.32996 z m 3.69287,-2.43216 c 0,1.56194 -0.53552,2.13093 -1.84085,2.13093 -0.39049,0 -0.84791,-0.0558 -1.20493,-0.17851 l 0,-3.84907 c 0.18967,-0.0892 0.56899,-0.24544 1.17146,-0.24544 1.51731,0 1.87432,0.87022 1.87432,2.14209 z"
           style="font-size:11.15671062px;font-style:normal;font-variant:normal;font-weight:normal;font-stretch:normal;letter-spacing:-0.4256992px;fill:#2e5f90;fill-opacity:1;font-family:AccordAlternate;-inkscape-font-specification:AccordAlternate"
           id="path4196"
           inkscape:connector-curvature="0" />
        <path
           d="m 176.99584,654.62634 0.64709,0 0,-5.32175 -0.64709,0 0,5.32175 z m -0.12273,-7.20723 c 0,0.24545 0.20083,0.43511 0.45743,0.43511 0.24545,0 0.43511,-0.20082 0.43511,-0.43511 0,-0.25661 -0.18966,-0.44627 -0.43511,-0.44627 -0.2566,0 -0.45743,0.18966 -0.45743,0.44627 z"
           style="font-size:11.15671062px;font-style:normal;font-variant:normal;font-weight:normal;font-stretch:normal;letter-spacing:-0.4256992px;fill:#2e5f90;fill-opacity:1;font-family:AccordAlternate;-inkscape-font-specification:AccordAlternate"
           id="path4198"
           inkscape:connector-curvature="0" />
        <path
           d="m 178.8231,653.18713 c 0,1.12682 0.54668,1.495 1.27186,1.495 0.29008,0 0.50205,-0.0446 0.64709,-0.11157 l -0.10041,-0.59131 c -0.13388,0.0669 -0.30123,0.10041 -0.52436,0.10041 -0.39049,0 -0.64709,-0.20082 -0.64709,-0.97063 l 0,-6.03578 -0.64709,0 0,6.11388 z"
           style="font-size:11.15671062px;font-style:normal;font-variant:normal;font-weight:normal;font-stretch:normal;letter-spacing:-0.4256992px;fill:#2e5f90;fill-opacity:1;font-family:AccordAlternate;-inkscape-font-specification:AccordAlternate"
           id="path4200"
           inkscape:connector-curvature="0" />
        <path
           d="m 185.49307,651.52478 c 0,-1.52847 -0.83676,-2.30944 -2.22019,-2.30944 -1.72929,0 -2.27597,1.22724 -2.27597,2.74455 0,1.9078 0.84791,2.74455 2.52142,2.74455 0.6694,0 1.28302,-0.13388 1.79623,-0.39049 l -0.0893,-0.60246 c -0.41279,0.22314 -1.04873,0.39049 -1.69582,0.39049 -1.16029,0 -1.87432,-0.53552 -1.87432,-1.8297 l 0,-0.0446 3.74865,0 c 0.0669,-0.21198 0.0893,-0.46858 0.0893,-0.70287 z m -3.83791,0.0781 c 0,-1.29417 0.63593,-1.79623 1.60656,-1.79623 0.97064,0 1.61773,0.50206 1.61773,1.79623 l 0,0.0558 -3.22429,0 0,-0.0558 z"
           style="font-size:11.15671062px;font-style:normal;font-variant:normal;font-weight:normal;font-stretch:normal;letter-spacing:-0.4256992px;fill:#2e5f90;fill-opacity:1;font-family:AccordAlternate;-inkscape-font-specification:AccordAlternate"
           id="path4202"
           inkscape:connector-curvature="0" />
      </g>
    </g>
  </g>
</svg>
