<?xml version="1.0" encoding="UTF-8"?>
<svg width="18px" height="18px" viewBox="0 0 18 18" version="1.1" xmlns="http://www.w3.org/2000/svg" xmlns:xlink="http://www.w3.org/1999/xlink">
    <!-- Generator: Sketch 52.6 (67491) - http://www.bohemiancoding.com/sketch -->
    <title>CloseButton</title>
    <desc>Created with Sketch.</desc>
    <g id="Main-Toolbar-Buttons" stroke="none" stroke-width="1" fill="none" fill-rule="evenodd">
        <g id="SymbolButton_CloseButton" fill="#A6A8AC">
            <path d="M5.26478361,13.6651604 C4.97707116,13.9528729 4.50878929,13.9514203 4.2190659,13.6616969 C3.9273226,13.3699536 3.92779184,12.9037898 4.21560238,12.6159792 L7.89120019,8.94038141 L4.21560238,5.26478361 C3.92788993,4.97707116 3.9293425,4.50878929 4.2190659,4.2190659 C4.51080919,3.9273226 4.97697306,3.92779184 5.26478361,4.21560238 L8.94038141,7.89120019 L12.6159792,4.21560238 C12.9036917,3.92788993 13.3719735,3.9293425 13.6616969,4.2190659 C13.9534402,4.51080919 13.952971,4.97697306 13.6651604,5.26478361 L9.98956264,8.94038141 L13.6651604,12.6159792 C13.9528729,12.9036917 13.9514203,13.3719735 13.6616969,13.6616969 C13.3699536,13.9534402 12.9037898,13.952971 12.6159792,13.6651604 L8.94038141,9.98956264 L5.26478361,13.6651604 Z" id="Cross"></path>
        </g>
    </g>
</svg>