<?xml version="1.0" encoding="UTF-8"?>
<svg width="24px" height="24px" viewBox="0 0 24 24" version="1.1" xmlns="http://www.w3.org/2000/svg" xmlns:xlink="http://www.w3.org/1999/xlink">
    <!-- Generator: Sketch 52.6 (67491) - http://www.bohemiancoding.com/sketch -->
    <title>GuiButton_pressed</title>
    <desc>Created with Sketch.</desc>
    <g id="Main-Toolbar-Buttons" stroke="none" stroke-width="1" fill="none" fill-rule="evenodd">
        <g id="GuiButton_pressed">
            <g id="GuiIcon-Copy-2" transform="translate(2.000000, 5.000000)">
                <rect id="Combined-Shape" stroke="#DFE1E5" x="0.5" y="0.5" width="12" height="13" rx="1"></rect>
                <polygon id="Path-75" fill="#DFE1E5" points="5.03000049 7.57519842 5.79651594 5.54044505 7.55920898 11.3550085 9.02261925 7.37477656 11.0400151 7.37477644 11.0279939 6.37484869 8.34476284 6.41912906 7.67268562 8.35622712 5.8929154 2.44150325 4.39120913 6.58063002 2 6.58063011 2.00134804 7.5806292"></polygon>
                <path d="M16.8231738,0.0077096989 L16.8231738,1.99999991 L17.3231738,1.99999991 L17.3231738,0.0259753163 C18.274072,0.18046212 19,1.00545627 19,2 C19,3.1045695 18.1045695,4 17,4 C15.8954305,4 15,3.1045695 15,2 C15,0.955017116 15.8014273,0.0972176117 16.8231738,0.0077096989 Z" id="Combined-Shape" fill="#DFE1E5"></path>
                <path d="M15.8299463,5.37676447 C16.6115716,4.81361654 17.7082392,4.88366688 18.4114878,5.5869155 C19.1925364,6.36796408 19.1925364,7.63429404 18.4114878,8.41534262 C17.6304392,9.19639121 16.3641092,9.19639121 15.5830606,8.41534262 C14.8441462,7.67642814 14.804285,6.5031776 15.4634772,5.71740211 L16.8722391,7.12616404 L17.2257925,6.77261065 L15.8299463,5.37676447 L15.8299463,5.37676447 Z" id="Combined-Shape-Copy" fill="#DFE1E5"></path>
                <path d="M18.6270904,10.8338012 C19.1902383,11.6154264 19.120188,12.712094 18.4169394,13.4153426 C17.6358908,14.1963912 16.3695608,14.1963912 15.5885122,13.4153426 C14.8074636,12.634294 14.8074636,11.3679641 15.5885122,10.5869155 C16.3274267,9.84800101 17.5006773,9.80813986 18.2864527,10.467332 L16.8776908,11.876094 L17.2312442,12.2296474 L18.6270904,10.8338012 L18.6270904,10.8338012 Z" id="Combined-Shape-Copy-2" fill="#DFE1E5"></path>
            </g>
        </g>
    </g>
</svg>