<?xml version="1.0" encoding="UTF-8"?>
<svg width="24px" height="24px" viewBox="0 0 24 24" version="1.1" xmlns="http://www.w3.org/2000/svg" xmlns:xlink="http://www.w3.org/1999/xlink">
    <!-- Generator: Sketch 52.6 (67491) - http://www.bohemiancoding.com/sketch -->
    <title>IncButton</title>
    <desc>Created with Sketch.</desc>
    <g id="Main-Toolbar-Buttons" stroke="none" stroke-width="1" fill="none" fill-rule="evenodd">
        <g id="IncDecButtons_pressed" transform="translate(-24.000000, 0.000000)">
            <rect id="RoundButton" stroke="#949599" x="0.5" y="2.5" width="47" height="19" rx="9.5"></rect>
            <path d="M29,12.2130178 C29,11.829098 29.307033,11.5226824 29.6857775,11.5226824 L34.5226824,11.5226824 L34.5226824,6.68577749 C34.5226824,6.30716213 34.8317561,6 35.2130178,6 C35.5969375,6 35.9033531,6.30703304 35.9033531,6.68577749 L35.9033531,11.5226824 L40.740258,11.5226824 C41.1188734,11.5226824 41.4260355,11.8317561 41.4260355,12.2130178 C41.4260355,12.5969375 41.1190025,12.9033531 40.740258,12.9033531 L35.9033531,12.9033531 L35.9033531,17.740258 C35.9033531,18.1188734 35.5942794,18.4260355 35.2130178,18.4260355 C34.829098,18.4260355 34.5226824,18.1190025 34.5226824,17.740258 L34.5226824,12.9033531 L29.6857775,12.9033531 C29.3071621,12.9033531 29,12.5942794 29,12.2130178 Z" id="Cross-3" fill="#949599"></path>
            <path d="M24.0657272,2.58475524 L24.0657272,21.6901515" id="Path-48" stroke="#979797"></path>
        </g>
    </g>
</svg>