<?xml version="1.0" encoding="UTF-8"?>
<svg width="48px" height="24px" viewBox="0 0 48 24" version="1.1" xmlns="http://www.w3.org/2000/svg" xmlns:xlink="http://www.w3.org/1999/xlink">
    <!-- Generator: Sketch 52.6 (67491) - http://www.bohemiancoding.com/sketch -->
    <title>MorphEndButton_pressed</title>
    <desc>Created with Sketch.</desc>
    <g id="Main-Toolbar-Buttons" stroke="none" stroke-width="1" fill="none" fill-rule="evenodd">
        <g id="MorphEndButton_pressed" fill="#DFE1E5">
            <path d="M27,7.00585866 C27,5.89805351 27.8945138,5 28.9940603,5 L41.0059397,5 C42.1072288,5 43,5.89706013 43,7.00585866 L43,16.9941413 C43,18.1019465 42.1054862,19 41.0059397,19 L28.9940603,19 C27.8927712,19 27,18.1029399 27,16.9941413 L27,7.00585866 Z M35.3730469,17 C35.9016954,17 36.3642558,16.9737958 36.7607422,16.9213867 C37.1572285,16.8689776 37.5081365,16.778972 37.8134766,16.6513672 C38.3011092,16.4371734 38.6884751,16.1056338 38.9755859,15.6567383 C39.2626967,15.2078428 39.40625,14.7031278 39.40625,14.1425781 C39.40625,12.9303325 38.7477279,12.1145854 37.4306641,11.6953125 C38.4332732,11.2304664 38.9345703,10.4967498 38.9345703,9.49414062 C38.9345703,9.2024725 38.8867192,8.9256198 38.7910156,8.66357422 C38.695312,8.40152864 38.556316,8.16227322 38.3740234,7.94580078 C38.1917309,7.72932834 37.9820975,7.55045644 37.7451172,7.40917969 C37.467121,7.24055905 37.152671,7.1266279 36.8017578,7.06738281 C36.4508446,7.00813772 36.0361352,6.97851562 35.5576172,6.97851562 L32.3105469,6.97851562 C31.877602,6.97851562 31.5642913,7.0753571 31.3706055,7.26904297 C31.1769196,7.46272883 31.0800781,7.78059675 31.0800781,8.22265625 L31.0800781,15.7558594 C31.0800781,16.1888042 31.174641,16.5043935 31.3637695,16.7026367 C31.5528981,16.9008799 31.8684874,17 32.3105469,17 L35.3730469,17 Z M35.2226562,12.5498047 C35.92904,12.5498047 36.4599592,12.6637358 36.8154297,12.8916016 C37.1709002,13.1194673 37.3486328,13.4863256 37.3486328,13.9921875 C37.3486328,14.9811247 36.6627673,15.4755859 35.2910156,15.4755859 L33.1103516,15.4755859 L33.1103516,12.5498047 L35.2226562,12.5498047 Z M33.1103516,8.50292969 L34.7578125,8.50292969 C35.4960974,8.50292969 36.0452456,8.58609943 36.4052734,8.75244141 C36.7653013,8.91878338 36.9453125,9.25488028 36.9453125,9.76074219 C36.9453125,9.99772254 36.8883469,10.2119131 36.7744141,10.4033203 C36.62858,10.6722019 36.4178074,10.8544917 36.1420898,10.9501953 C35.8663723,11.0458989 35.4755885,11.09375 34.9697266,11.09375 L33.1103516,11.09375 L33.1103516,8.50292969 Z" id="Combined-Shape"></path>
            <g id="MorphButton-Copy" transform="translate(14.500000, 12.000000) scale(-1, 1) translate(-14.500000, -12.000000) translate(5.000000, 5.000000)">
                <rect id="Rectangle-29" x="0" y="0" width="4" height="14"></rect>
                <circle id="Oval-9" cx="7" cy="7" r="2"></circle>
                <circle id="Oval-9-Copy" cx="12" cy="7" r="2"></circle>
                <circle id="Oval-9-Copy-2" cx="17" cy="7" r="2"></circle>
            </g>
        </g>
    </g>
</svg>