<?xml version="1.0" encoding="UTF-8"?>
<svg width="48px" height="24px" viewBox="0 0 48 24" version="1.1" xmlns="http://www.w3.org/2000/svg" xmlns:xlink="http://www.w3.org/1999/xlink">
    <!-- Generator: Sketch 52.6 (67491) - http://www.bohemiancoding.com/sketch -->
    <title>MorphStartButton</title>
    <desc>Created with Sketch.</desc>
    <g id="Main-Toolbar-Buttons" stroke="none" stroke-width="1" fill="none" fill-rule="evenodd">
        <g id="MorphStartButton" fill="#A6A8AC">
            <path d="M5,7.00585866 C5,5.89805351 5.89451376,5 6.99406028,5 L19.0059397,5 C20.1072288,5 21,5.89706013 21,7.00585866 L21,16.9941413 C21,18.1019465 20.1054862,19 19.0059397,19 L6.99406028,19 C5.8927712,19 5,18.1029399 5,16.9941413 L5,7.00585866 Z M15.4711914,15.8652344 C15.5349938,16.0201831 15.6113277,16.199055 15.7001953,16.4018555 C15.7890629,16.604656 15.8722327,16.7550451 15.949707,16.8530273 C16.0271814,16.9510096 16.1228835,17.0284828 16.2368164,17.0854492 C16.3507493,17.1424156 16.4874667,17.1708984 16.6469727,17.1708984 C16.9204115,17.1708984 17.1539704,17.074057 17.3476562,16.8803711 C17.5413421,16.6866852 17.6381836,16.473634 17.6381836,16.2412109 C17.6381836,16.0179025 17.5356456,15.6601587 17.3305664,15.1679688 L14.7124023,8.70117188 C14.5893549,8.37760255 14.4879561,8.11897883 14.4082031,7.92529297 C14.3284501,7.7316071 14.2304693,7.55045657 14.1142578,7.38183594 C13.9980463,7.2132153 13.8453785,7.07535861 13.65625,6.96826172 C13.4671215,6.86116483 13.231284,6.80761719 12.9487305,6.80761719 C12.6707343,6.80761719 12.4371754,6.86116483 12.2480469,6.96826172 C12.0589183,7.07535861 11.9062506,7.21549393 11.7900391,7.38867188 C11.6738275,7.56184982 11.5644536,7.77945833 11.4619141,8.04150391 C11.3593745,8.30354949 11.2716475,8.52799386 11.1987305,8.71484375 L8.63525391,15.2226562 C8.53043567,15.4824232 8.45524111,15.6852206 8.40966797,15.8310547 C8.36409482,15.9768888 8.34130859,16.1181634 8.34130859,16.2548828 C8.34130859,16.4918632 8.43928938,16.7037751 8.63525391,16.890625 C8.83121843,17.0774749 9.05680211,17.1708984 9.31201172,17.1708984 C9.61279447,17.1708984 9.82926366,17.0831715 9.96142578,16.9077148 C10.0935879,16.7322582 10.2530915,16.3938827 10.4399414,15.8925781 L10.918457,14.6074219 L14.9926758,14.6074219 L15.4711914,15.8652344 Z M11.4516602,13.0830078 L12.9350586,8.94726562 L14.4458008,13.0830078 L11.4516602,13.0830078 Z" id="Combined-Shape"></path>
            <g id="MorphButton" transform="translate(24.000000, 5.000000)">
                <rect id="Rectangle-29" x="0" y="0" width="4" height="14"></rect>
                <circle id="Oval-9" cx="7" cy="7" r="2"></circle>
                <circle id="Oval-9-Copy" cx="12" cy="7" r="2"></circle>
                <circle id="Oval-9-Copy-2" cx="17" cy="7" r="2"></circle>
            </g>
        </g>
    </g>
</svg>