<?xml version="1.0" encoding="UTF-8"?>
<svg width="24px" height="24px" viewBox="0 0 24 24" version="1.1" xmlns="http://www.w3.org/2000/svg" xmlns:xlink="http://www.w3.org/1999/xlink">
    <!-- Generator: Sketch 52.6 (67491) - http://www.bohemiancoding.com/sketch -->
    <title>MuteButton_checked</title>
    <desc>Created with Sketch.</desc>
    <g id="Main-Toolbar-Buttons" stroke="none" stroke-width="1" fill="none" fill-rule="evenodd">
        <g id="MuteButton_pressed">
            <path d="M15.6846876,15.5472112 L18.4478337,12.7840651 L21.2109799,15.5472112 C21.3028016,15.639033 21.4508484,15.6387398 21.5447941,15.5447941 C21.6379048,15.4516834 21.6383903,15.302159 21.5472112,15.2109799 L18.7840651,12.4478337 L21.5472112,9.68468762 C21.639033,9.59286585 21.6387398,9.4448191 21.5447941,9.3508734 C21.4516834,9.25776267 21.302159,9.25727715 21.2109799,9.34845625 L18.4478337,12.1116024 L15.6846876,9.34845625 C15.5928659,9.25663448 15.4448191,9.25692769 15.3508734,9.3508734 C15.2577627,9.44398412 15.2572772,9.59350852 15.3484563,9.68468762 L18.1116024,12.4478337 L15.3484563,15.2109799 C15.2566345,15.3028016 15.2569277,15.4508484 15.3508734,15.5447941 C15.4439841,15.6379048 15.5935085,15.6383903 15.6846876,15.5472112 Z" id="Cross-2" stroke="#FF6600" stroke-width="0.56" fill="#D8D8D8"></path>
            <polygon id="Path-42" fill="#A6A8AC" points="4 9.3828125 7.72908864 9.3828125 13 4 13 20 7.72908864 14.6230469 4 14.6230469"></polygon>
        </g>
    </g>
</svg>