<?xml version="1.0" encoding="UTF-8"?>
<svg width="30px" height="30px" viewBox="0 0 30 30" version="1.1" xmlns="http://www.w3.org/2000/svg" xmlns:xlink="http://www.w3.org/1999/xlink">
    <!-- Generator: Sketch 52.6 (67491) - http://www.bohemiancoding.com/sketch -->
    <title>PanicButton_pressed</title>
    <desc>Created with Sketch.</desc>
    <g id="Main-Toolbar-Buttons" stroke="none" stroke-width="1" fill="none" fill-rule="evenodd">
        <g id="PanicButton_pressed" fill="#DFE1E5">
            <path d="M12.8656356,4.8678965 C12.8656356,4.8678965 5.40831393,18.7490559 3.26829918,22.5594834 C2.3907358,23.8451843 1.84343846,26.1582199 4.61769418,26.1582199 L24.3495359,26.1582199 C25.838609,26.1582199 27.4508873,25.2414088 25.8386092,22.5594827 C25.8386092,22.5594827 25.8386092,22.5594831 16.1088782,4.8678965 C15.5579386,3.94276907 13.6739912,3.49965384 12.8656356,4.8678965 L12.8656356,4.8678965 L12.8656356,4.8678965 Z M16.1088787,11.6098321 C16.1088787,8.67025201 15.1718538,8.41628375 14.4872571,8.41628375 C13.8026604,8.41628375 12.8656355,8.67025201 12.8656355,11.6098321 C12.8656355,14.5494123 13.5916602,19.061445 14.4872571,19.061445 C15.382854,19.061445 16.1088787,14.5494123 16.1088787,11.6098321 Z M14.4872571,24.029187 C15.382854,24.029187 16.1088787,23.2348535 16.1088787,22.2549934 C16.1088787,21.2751334 15.382854,20.4807999 14.4872571,20.4807999 C13.5916602,20.4807999 12.8656355,21.2751334 12.8656355,22.2549934 C12.8656355,23.2348535 13.5916602,24.029187 14.4872571,24.029187 L14.4872571,24.029187 Z" id="Path-27"></path>
        </g>
    </g>
</svg>