<?xml version="1.0" encoding="UTF-8"?>
<svg width="24px" height="24px" viewBox="0 0 24 24" version="1.1" xmlns="http://www.w3.org/2000/svg" xmlns:xlink="http://www.w3.org/1999/xlink">
    <!-- Generator: Sketch 52.6 (67491) - http://www.bohemiancoding.com/sketch -->
    <title>PresetButton</title>
    <desc>Created with Sketch.</desc>
    <g id="Main-Toolbar-Buttons" stroke="none" stroke-width="1" fill="none" fill-rule="evenodd">
        <g id="PresetButton" fill="#A6A8AC">
            <path d="M5.00571549,15.2935375 C5.96684685,10.4006091 6.36289926,8.38438523 6.98494659,5.21766614 C7.0094347,5.09300204 7.09006474,5 7.15124001,5 C12.2631746,5 15.1204143,5 15.7229592,5 C16.6340314,5 17.2425205,6.6135074 16.9062282,8.32550448 C16.5699359,10.0375016 15.3060337,11.7605716 14.3949615,11.7605716 C13.4838893,11.7605716 11.6840352,11.7605716 10.1703565,11.7605716 C9.81731671,11.7605716 10.1824194,9.90190651 10.5354592,9.90190651 C10.855469,9.90190651 11.5285252,9.90190651 12.0491379,9.90190651 C12.5697506,9.90190651 12.9670182,9.0911885 13.1174236,8.32550448 C13.267829,7.55982047 13.1795075,6.79775569 12.6588948,6.79775569 C12.3331599,6.79775569 11.6569604,6.79775569 10.6302962,6.79775569 C10.4941802,6.79775569 10.3783943,7.02416833 10.3637305,7.10457821 C10.3123019,7.38659039 9.78694324,10.0408874 8.78003815,15.1668407 C8.74943865,15.3226167 8.70946646,15.5 8.55212911,15.5 C7.4457677,15.5 6.29250052,15.5 5.09232757,15.5 C5.03622696,15.5 4.98199851,15.4142759 5.00571549,15.2935375 Z" id="PresetIcon"></path>
            <polygon id="Path" transform="translate(16.954545, 17.590909) rotate(-90.000000) translate(-16.954545, -17.590909) " points="14.4545455 14.6363636 14.4545455 20.5454545 19.4545455 17.5909091"></polygon>
        </g>
    </g>
</svg>