<?xml version="1.0" encoding="UTF-8"?>
<svg width="24px" height="24px" viewBox="0 0 24 24" version="1.1" xmlns="http://www.w3.org/2000/svg" xmlns:xlink="http://www.w3.org/1999/xlink">
    <!-- Generator: Sketch 52.6 (67491) - http://www.bohemiancoding.com/sketch -->
    <title>RandomizeButton_pressed</title>
    <desc>Created with Sketch.</desc>
    <g id="Main-Toolbar-Buttons" stroke="none" stroke-width="1" fill="none" fill-rule="evenodd">
        <g id="RandomizeButton_pressed" fill="#DFE1E5">
            <g id="Dice" transform="translate(7.000000, 5.000000)">
                <path d="M0,2.00585866 C0,0.898053512 0.897060126,0 2.00585866,0 L11.9941413,0 C13.1019465,0 14,0.897060126 14,2.00585866 L14,11.9941413 C14,13.1019465 13.1029399,14 11.9941413,14 L2.00585866,14 C0.898053512,14 0,13.1029399 0,11.9941413 L0,2.00585866 Z M3.31578947,5.15789474 C4.33315612,5.15789474 5.15789474,4.33315612 5.15789474,3.31578947 C5.15789474,2.29842283 4.33315612,1.47368421 3.31578947,1.47368421 C2.29842283,1.47368421 1.47368421,2.29842283 1.47368421,3.31578947 C1.47368421,4.33315612 2.29842283,5.15789474 3.31578947,5.15789474 Z M10.6842105,5.15789474 C11.7015772,5.15789474 12.5263158,4.33315612 12.5263158,3.31578947 C12.5263158,2.29842283 11.7015772,1.47368421 10.6842105,1.47368421 C9.66684388,1.47368421 8.84210526,2.29842283 8.84210526,3.31578947 C8.84210526,4.33315612 9.66684388,5.15789474 10.6842105,5.15789474 Z M10.6842105,12.5263158 C11.7015772,12.5263158 12.5263158,11.7015772 12.5263158,10.6842105 C12.5263158,9.66684388 11.7015772,8.84210526 10.6842105,8.84210526 C9.66684388,8.84210526 8.84210526,9.66684388 8.84210526,10.6842105 C8.84210526,11.7015772 9.66684388,12.5263158 10.6842105,12.5263158 Z M3.31578947,12.5263158 C4.33315612,12.5263158 5.15789474,11.7015772 5.15789474,10.6842105 C5.15789474,9.66684388 4.33315612,8.84210526 3.31578947,8.84210526 C2.29842283,8.84210526 1.47368421,9.66684388 1.47368421,10.6842105 C1.47368421,11.7015772 2.29842283,12.5263158 3.31578947,12.5263158 Z M7,8.84210526 C8.01736664,8.84210526 8.84210526,8.01736664 8.84210526,7 C8.84210526,5.98263336 8.01736664,5.15789474 7,5.15789474 C5.98263336,5.15789474 5.15789474,5.98263336 5.15789474,7 C5.15789474,8.01736664 5.98263336,8.84210526 7,8.84210526 Z" id="Combined-Shape"></path>
            </g>
        </g>
    </g>
</svg>